name C:\Users\r0593348\3dpredictsim\Results\batch_windlass\Pog_s1_tmt_bCst_d00_k1000_WL40_ig24.mot
datacolumns 128
datarows 4
range 1.62923391 1.66181859
endheader
time	pelvis_tilt	pelvis_list	pelvis_rotation	pelvis_tx	pelvis_ty	pelvis_tz	hip_flexion_l	hip_adduction_l	hip_rotation_l	hip_flexion_r	hip_adduction_r	hip_rotation_r	knee_angle_l	knee_angle_r	ankle_angle_l	ankle_angle_r	subtalar_angle_l	subtalar_angle_r	tmt_angle_l	tmt_angle_r	mtp_angle_l	mtp_angle_r	lumbar_extension	lumbar_bending	lumbar_rotation	arm_flex_l	arm_add_l	arm_rot_l	arm_flex_r	arm_add_r	arm_rot_r	elbow_flex_l	elbow_flex_r	pro_sup_l	pro_sup_r	glut_med1_l/activation	glut_med2_l/activation	glut_med3_l/activation	glut_min1_l/activation	glut_min2_l/activation	glut_min3_l/activation	semimem_l/activation	semiten_l/activation	bifemlh_l/activation	bifemsh_l/activation	sar_l/activation	add_long_l/activation	add_brev_l/activation	add_mag1_l/activation	add_mag2_l/activation	add_mag3_l/activation	tfl_l/activation	pect_l/activation	grac_l/activation	glut_max1_l/activation	glut_max2_l/activation	glut_max3_l/activation	iliacus_l/activation	psoas_l/activation	quad_fem_l/activation	gem_l/activation	peri_l/activation	rect_fem_l/activation	vas_med_l/activation	vas_int_l/activation	vas_lat_l/activation	med_gas_l/activation	lat_gas_l/activation	soleus_l/activation	tib_post_l/activation	flex_dig_l/activation	flex_hal_l/activation	tib_ant_l/activation	per_brev_l/activation	per_long_l/activation	per_tert_l/activation	ext_dig_l/activation	ext_hal_l/activation	ercspn_l/activation	intobl_l/activation	extobl_l/activation	glut_med1_r/activation	glut_med2_r/activation	glut_med3_r/activation	glut_min1_r/activation	glut_min2_r/activation	glut_min3_r/activation	semimem_r/activation	semiten_r/activation	bifemlh_r/activation	bifemsh_r/activation	sar_r/activation	add_long_r/activation	add_brev_r/activation	add_mag1_r/activation	add_mag2_r/activation	add_mag3_r/activation	tfl_r/activation	pect_r/activation	grac_r/activation	glut_max1_r/activation	glut_max2_r/activation	glut_max3_r/activation	iliacus_r/activation	psoas_r/activation	quad_fem_r/activation	gem_r/activation	peri_r/activation	rect_fem_r/activation	vas_med_r/activation	vas_int_r/activation	vas_lat_r/activation	med_gas_r/activation	lat_gas_r/activation	soleus_r/activation	tib_post_r/activation	flex_dig_r/activation	flex_hal_r/activation	tib_ant_r/activation	per_brev_r/activation	per_long_r/activation	per_tert_r/activation	ext_dig_r/activation	ext_hal_r/activation	ercspn_r/activation	intobl_r/activation	extobl_r/activation	
          1.62923391	         -2.92724620	          1.64433916	         -5.55414787	          2.03654239	          0.86187720	          0.00196569	         30.97164725	          2.31385975	         -2.39250959	        -16.69840983	         -1.33074856	          7.69949331	        -15.38608562	         -9.86995910	          7.38805271	          2.60534897	          1.99169799	         15.15768333	         -0.32220371	        -11.32896014	          0.72251310	         27.30482452	         -1.25675517	         -0.25267309	          2.00778428	        -10.74336143	        -13.52762260	          7.29031112	          6.30959287	        -13.47397093	         16.69423418	         16.38498258	         36.70644142	         86.51662706	         86.51662706	          0.05905130	          0.05905111	          0.05414762	          0.05905104	          0.05905073	          0.05905095	          0.05905139	          0.05905131	          0.10432845	          0.05000024	          0.05000033	          0.11488595	          0.25174996	          0.10922527	          0.17081417	          0.10598711	          0.05000102	          0.05835440	          0.07612637	          0.05000578	          0.07735368	          0.10901534	          0.05000022	          0.05000008	          0.30097919	          0.06571075	          0.09870934	          0.05000007	          0.13692167	          0.14075460	          0.11629199	          0.05905130	          0.05905132	          0.05905129	          0.05318772	          0.05000035	          0.05000086	          0.51567936	          0.27345183	          0.16704702	          0.25440688	          0.59439679	          0.26042658	          0.05000010	          0.08994111	          0.10139520	          0.29252826	          0.09895292	          0.05000012	          0.28494025	          0.19241267	          0.09695698	          0.05000140	          0.05000026	          0.05000017	          0.06065026	          0.06974452	          0.11787235	          0.08139993	          0.05000097	          0.05000161	          0.05000100	          0.24519013	          0.05905652	          0.05000059	          0.05000146	          0.05000099	          0.05000065	          0.25081698	          0.49582011	          0.05000009	          0.05000022	          0.05000005	          0.19878265	          0.08874904	          0.05510268	          0.09455633	          0.23818831	          0.30468404	          0.20177735	          0.18143050	          0.16988531	          0.22523937	          0.05000004	          0.15064434	          0.19012653	          0.05000024	          0.05000019	          0.05000016	          0.05000001	          0.05000009	          0.06100473	
          1.64009547	         -2.91915653	          1.71750029	         -5.76030138	          2.05330296	          0.86114270	          0.00174073	         30.18202553	          2.71818638	         -2.19438605	        -16.47850268	         -1.55650224	          7.49220362	        -15.14027949	        -11.88588435	          6.81244698	          1.53636454	          1.63038522	         15.88172360	         -0.42847245	        -11.82059923	          0.96107796	         27.99347339	         -1.03113530	         -0.48814156	          2.09062657	        -11.79801481	        -13.51421530	          7.09132432	          6.00680176	        -13.50320829	         16.91568711	         16.33223982	         37.71534612	         86.51662706	         86.51662706	          0.05000002	          0.05000007	          0.11073761	          0.05000004	          0.05000005	          0.05000011	          0.05000010	          0.05000012	          0.08833716	          0.05000022	          0.05719758	          0.09727664	          0.21316251	          0.41843478	          0.27367115	          0.08974170	          0.05000011	          0.05000202	          0.06445905	          0.05905126	          0.08334652	          0.14295360	          0.05000009	          0.05905058	          0.59455991	          0.16028079	          0.13684642	          0.06974143	          0.24486584	          0.24785168	          0.20898757	          0.05000002	          0.05000005	          0.05000000	          0.06338668	          0.06974105	          0.06461617	          0.59258920	          0.36015001	          0.20011342	          0.23695195	          0.61417355	          0.22050891	          0.05000000	          0.07615507	          0.08585350	          0.24768999	          0.08378559	          0.05000025	          0.24126509	          0.16292000	          0.08209564	          0.05000607	          0.05000023	          0.05000033	          0.05135391	          0.05905428	          0.19694832	          0.23261536	          0.24336728	          0.06975364	          0.12204562	          0.20760792	          0.05000636	          0.05000044	          0.05000193	          0.05000135	          0.05000245	          0.21237214	          0.44970642	          0.05000017	          0.05000965	          0.05905156	          0.17941484	          0.14815249	          0.16769839	          0.08006575	          0.20167915	          0.25798251	          0.17084920	          0.15362115	          0.14384569	          0.19071510	          0.13737841	          0.12755385	          0.16098425	          0.05000025	          0.14052486	          0.05000628	          0.05000030	          0.08236600	          0.05941009	
          1.65095703	         -2.90718213	          1.80178603	         -5.94064582	          2.07023127	          0.86014518	          0.00155383	         29.22744364	          3.04327457	         -1.91844406	        -16.18482463	         -1.77013150	          7.26805417	        -15.27154537	        -14.08065826	          6.28558561	          0.48941888	          1.23942203	         16.51716760	         -0.83812608	        -11.96622406	          1.13478428	         27.87215919	         -0.79677179	         -0.74272598	          2.15880441	        -12.81446940	        -13.51620811	          7.00128939	          5.63956978	        -13.53171252	         17.05646774	         16.21682166	         38.71153103	         86.51662706	         86.51662706	          0.32210678	          0.28057875	          0.29320366	          0.13596242	          0.05000105	          0.27927484	          0.09822613	          0.08773938	          0.11570752	          0.05000005	          0.05000032	          0.08236644	          0.24969689	          0.35429777	          0.23172382	          0.14422419	          0.05000030	          0.06974343	          0.09924501	          0.05000011	          0.07057133	          0.12104215	          0.05524616	          0.05000043	          0.50342663	          0.13571326	          0.26086602	          0.05905157	          0.20733323	          0.20986144	          0.17695432	          0.05905128	          0.05905128	          0.05905129	          0.05905126	          0.05905141	          0.05905137	          0.59075668	          0.30494683	          0.16944036	          0.52274505	          0.67004429	          0.18670965	          0.05000004	          0.08770880	          0.07269400	          0.27479966	          0.07094309	          0.05000014	          0.20428443	          0.13794794	          0.06951222	          0.05000138	          0.05000078	          0.05000192	          0.05000005	          0.05000269	          0.16945717	          0.30071527	          0.20606448	          0.05906387	          0.10333887	          0.22032255	          0.08236414	          0.05904279	          0.05000968	          0.05010048	          0.05905138	          0.17982012	          0.42521297	          0.05905123	          0.05000107	          0.05000027	          0.15191440	          0.12544392	          0.14199385	          0.06779341	          0.17076606	          0.21843933	          0.14466168	          0.13007436	          0.12179735	          0.16148265	          0.22273785	          0.14549354	          0.17970945	          0.26178487	          0.22647897	          0.15774279	          0.06930633	          0.06974106	          0.05905135	
          1.66181859	         -2.89327529	          1.90037262	         -6.08980090	          2.08710238	          0.85889123	          0.00136205	         28.16821448	          3.34113019	         -1.62922413	        -15.77604843	         -1.97288972	          7.04518401	        -15.42672756	        -16.52248593	          6.11261758	         -0.43392432	          0.81333199	         17.03875932	         -1.35998186	        -11.55446058	          1.33123110	         26.53783153	         -0.57491780	         -1.01629276	          2.21460190	        -13.74271841	        -13.53260921	          7.04144477	          5.24406181	        -13.56418395	         17.13161700	         16.01430572	         39.67754157	         86.51662706	         86.51662706	          0.40894778	          0.42755638	          0.46559734	          0.24855062	          0.23049453	          0.36503232	          0.08317031	          0.12764430	          0.09797220	          0.07727685	          0.05000053	          0.06974146	          0.21142374	          0.29999164	          0.23061655	          0.16815627	          0.05000018	          0.05905351	          0.12050243	          0.26826232	          0.19486888	          0.16206807	          0.05000008	          0.05000008	          0.42626215	          0.11491143	          0.26406791	          0.05000024	          0.17555410	          0.24019811	          0.16708143	          0.05000001	          0.05000002	          0.05000000	          0.05000000	          0.05000015	          0.05000010	          0.72268980	          0.30782446	          0.15088881	          0.72318662	          0.72201460	          0.48255215	          0.07367715	          0.07426498	          0.06155157	          0.23267886	          0.06006918	          0.05000019	          0.18207468	          0.11680381	          0.05904776	          0.05001549	          0.05000033	          0.05000026	          0.05007499	          0.06974157	          0.14348346	          0.25462212	          0.17447929	          0.05001081	          0.08749933	          0.26157946	          0.06973985	          0.05000146	          0.05000140	          0.05000061	          0.05000037	          0.15799784	          0.40627476	          0.05000013	          0.05000074	          0.05000073	          0.12862921	          0.10621608	          0.12022925	          0.05740215	          0.14459128	          0.18495728	          0.12248815	          0.11013706	          0.10312863	          0.13673105	          0.23895433	          0.13878315	          0.16200495	          0.22165953	          0.25251998	          0.13356437	          0.10581474	          0.05905125	          0.05000007	
